<?xml version="1.0" encoding="utf-8"?>
<svg width="50px" height="50px" viewBox="0 0 50 50" version="1.1" xmlns:xlink="http://www.w3.org/1999/xlink" xmlns="http://www.w3.org/2000/svg">
  <g id="Key-Icon-2">
    <path d="M34 0C25.1797 0 18 7.17969 18 16C18 17.957 18.3555 19.8281 19 21.5625L0 40.5938L0 46.5938L18.5625 28L20 29.4375L1 48.4063L2.59375 50L9.40625 50L13 46.4063L13 44L15.4062 44L19 40.4062L19 39L20.4063 39L23 36.4063L23 35L24.4063 35L28.4375 30.9688C30.1758 31.6172 32.0391 32 34 32C42.8203 32 50 24.8203 50 16C50 7.17969 42.8203 0 34 0L34 0ZM34 5C36.9375 5 39.7031 6.14063 41.7813 8.21875C43.8594 10.2969 45 13.0625 45 16C45 18.9375 43.8594 21.7031 41.7813 23.7813L41.0625 24.5L25.5 8.9375L26.2188 8.21875C28.2969 6.14063 31.0625 5 34 5L34 5Z" id="Shape" fill="#FFFFFF" fill-rule="evenodd" stroke="none" />
  </g>
</svg>