<?xml version="1.0" encoding="utf-8"?>
<svg width="16px" height="16px" viewBox="0 0 16 16" version="1.1" xmlns:xlink="http://www.w3.org/1999/xlink" xmlns="http://www.w3.org/2000/svg">
  <defs>
    <path d="M0 0L16 0L16 16L0 16L0 0Z" id="path_1" />
    <clipPath id="mask_1">
      <use xlink:href="#path_1" />
    </clipPath>
  </defs>
  <g id="Folder-Icon">
    <path d="M0 0L16 0L16 16L0 16L0 0Z" id="Background" fill="#FFFFFF" fill-opacity="0" fill-rule="evenodd" stroke="none" />
    <g clip-path="url(#mask_1)">
      <path d="M2.5 2C1.67578 2 1 2.67578 1 3.5L1 12.5C1 13.3242 1.67578 14 2.5 14L13.5 14C14.3242 14 15 13.3242 15 12.5L15 5.5C15 4.67578 14.3242 4 13.5 4L6.79688 4L6.14453 2.78906C5.88281 2.30078 5.375 2 4.82422 2L2.5 2ZM2.5 3L4.82422 3C5.00781 3 5.17578 3.10156 5.26563 3.26172L5.66406 4L2 4L2 3.5C2 3.21875 2.21875 3 2.5 3L2.5 3ZM2 5L13.5 5C13.7813 5 14 5.21875 14 5.5L14 12.5C14 12.7813 13.7813 13 13.5 13L2.5 13C2.21875 13 2 12.7813 2 12.5L2 5Z" id="Shape" fill="#FFFFFF" fill-rule="evenodd" stroke="none" />
    </g>
  </g>
</svg>