<?xml version="1.0" encoding="utf-8"?>
<svg width="16px" height="16px" viewBox="0 0 16 16" version="1.1" xmlns:xlink="http://www.w3.org/1999/xlink" xmlns="http://www.w3.org/2000/svg">
  <defs>
    <path d="M0 0L16 0L16 16L0 16L0 0Z" id="path_1" />
    <clipPath id="mask_1">
      <use xlink:href="#path_1" />
    </clipPath>
  </defs>
  <g id="Document-Icon">
    <path d="M0 0L16 0L16 16L0 16L0 0Z" id="Background" fill="#FFFFFF" fill-opacity="0" fill-rule="evenodd" stroke="none" />
    <g clip-path="url(#mask_1)">
      <path d="M4.5 2C3.67578 2 3 2.67578 3 3.5L3 12.5C3 13.3242 3.67578 14 4.5 14L11.5 14C12.3242 14 13 13.3242 13 12.5L13 5.29297L9.70703 2L4.5 2ZM4.5 3L9 3L9 6L12 6L12 12.5C12 12.7813 11.7813 13 11.5 13L4.5 13C4.21875 13 4 12.7813 4 12.5L4 3.5C4 3.21875 4.21875 3 4.5 3L4.5 3ZM10 3.70703L11.293 5L10 5L10 3.70703ZM6 8L6 9L10 9L10 8L6 8ZM6 10L6 11L9 11L9 10L6 10Z" id="Shape" fill="#FFFFFF" fill-rule="evenodd" stroke="none" />
    </g>
  </g>
</svg>