<svg xmlns="http://www.w3.org/2000/svg" version="1.1" xmlns:xlink="http://www.w3.org/1999/xlink" xmlns:svgjs="http://svgjs.com/svgjs" width="1440" height="1024" preserveAspectRatio="none" viewBox="0 0 1440 1024">
    <g mask="url(&quot;#SvgjsMask1007&quot;)" fill="none" style="--darkreader-inline-fill:none;" data-darkreader-inline-fill="">
        <rect width="1440" height="1024" x="0" y="0" fill="rgba(140, 21, 143, 1)" style="--darkreader-inline-fill:#701172;" data-darkreader-inline-fill=""></rect>
        <path d="M48.14 210.74L113.09 248.24L113.09 323.24L48.14 360.74L-16.81 323.24L-16.81 248.24zM48.14 435.74L113.09 473.24L113.09 548.24L48.14 585.74L-16.81 548.24L-16.81 473.24zM113.09 773.24L178.05 810.74L178.05 885.74L113.09 923.24L48.14 885.74L48.14 810.74zM113.09 998.24L178.05 1035.74L178.05 1110.74L113.09 1148.24L48.14 1110.74L48.14 1035.74zM178.05 -14.26L243 23.24L243 98.24L178.05 135.74L113.09 98.24L113.09 23.24zM243 323.24L307.95 360.74L307.95 435.74L243 473.24L178.05 435.74L178.05 360.74zM307.95 -14.26L372.91 23.24L372.91 98.24L307.95 135.74L243 98.24L243 23.24zM372.91 323.24L437.86 360.74L437.86 435.74L372.91 473.24L307.95 435.74L307.95 360.74zM307.95 660.74L372.91 698.24L372.91 773.24L307.95 810.74L243 773.24L243 698.24zM762.63 548.24L827.59 585.74L827.59 660.74L762.63 698.24L697.68 660.74L697.68 585.74zM762.63 773.24L827.59 810.74L827.59 885.74L762.63 923.24L697.68 885.74L697.68 810.74zM827.58 -14.26L892.54 23.24L892.54 98.24L827.58 135.74L762.63 98.24L762.63 23.24zM892.54 323.24L957.49 360.74L957.49 435.74L892.54 473.24L827.58 435.74L827.58 360.74zM827.58 660.74L892.54 698.24L892.54 773.24L827.58 810.74L762.63 773.24L762.63 698.24zM892.54 998.24L957.49 1035.74L957.49 1110.74L892.54 1148.24L827.58 1110.74L827.58 1035.74zM1022.45 323.24L1087.4 360.74L1087.4 435.74L1022.45 473.24L957.49 435.74L957.49 360.74zM1152.35 98.24L1217.31 135.74L1217.31 210.74L1152.35 248.24L1087.4 210.74L1087.4 135.74zM1282.26 98.24L1347.21 135.74L1347.21 210.74L1282.26 248.24L1217.31 210.74L1217.31 135.74zM1282.26 548.24L1347.21 585.74L1347.21 660.74L1282.26 698.24L1217.31 660.74L1217.31 585.74zM1282.26 773.24L1347.21 810.74L1347.21 885.74L1282.26 923.24L1217.31 885.74L1217.31 810.74zM1282.26 998.24L1347.21 1035.74L1347.21 1110.74L1282.26 1148.24L1217.31 1110.74L1217.31 1035.74zM1347.22 -14.26L1412.17 23.24L1412.17 98.24L1347.22 135.74L1282.26 98.24L1282.26 23.24zM1347.22 210.74L1412.17 248.24L1412.17 323.24L1347.22 360.74L1282.26 323.24L1282.26 248.24zM1412.17 548.24L1477.12 585.74L1477.12 660.74L1412.17 698.24L1347.22 660.74L1347.22 585.74zM1477.12 -14.26L1542.08 23.24L1542.08 98.24L1477.12 135.74L1412.17 98.24L1412.17 23.24zM1542.08 98.24L1607.03 135.74L1607.03 210.74L1542.08 248.24L1477.12 210.74L1477.12 135.74zM1477.12 210.74L1542.08 248.24L1542.08 323.24L1477.12 360.74L1412.17 323.24L1412.17 248.24zM1542.08 323.24L1607.03 360.74L1607.03 435.74L1542.08 473.24L1477.12 435.74L1477.12 360.74zM1477.12 660.74L1542.08 698.24L1542.08 773.24L1477.12 810.74L1412.17 773.24L1412.17 698.24zM1477.12 885.74L1542.08 923.24L1542.08 998.24L1477.12 1035.74L1412.17 998.24L1412.17 923.24z" stroke="rgba(255, 53, 98, 1)" stroke-width="2" style="--darkreader-inline-stroke:#ff3f69;" data-darkreader-inline-stroke=""></path>
        <path d="M40.64 210.74 a7.5 7.5 0 1 0 15 0 a7.5 7.5 0 1 0 -15 0zM105.59 248.24 a7.5 7.5 0 1 0 15 0 a7.5 7.5 0 1 0 -15 0zM105.59 323.24 a7.5 7.5 0 1 0 15 0 a7.5 7.5 0 1 0 -15 0zM40.64 360.74 a7.5 7.5 0 1 0 15 0 a7.5 7.5 0 1 0 -15 0zM-24.31 323.24 a7.5 7.5 0 1 0 15 0 a7.5 7.5 0 1 0 -15 0zM-24.31 248.24 a7.5 7.5 0 1 0 15 0 a7.5 7.5 0 1 0 -15 0zM40.64 435.74 a7.5 7.5 0 1 0 15 0 a7.5 7.5 0 1 0 -15 0zM105.59 473.24 a7.5 7.5 0 1 0 15 0 a7.5 7.5 0 1 0 -15 0zM105.59 548.24 a7.5 7.5 0 1 0 15 0 a7.5 7.5 0 1 0 -15 0zM40.64 585.74 a7.5 7.5 0 1 0 15 0 a7.5 7.5 0 1 0 -15 0zM-24.31 548.24 a7.5 7.5 0 1 0 15 0 a7.5 7.5 0 1 0 -15 0zM-24.31 473.24 a7.5 7.5 0 1 0 15 0 a7.5 7.5 0 1 0 -15 0zM105.59 773.24 a7.5 7.5 0 1 0 15 0 a7.5 7.5 0 1 0 -15 0zM170.55 810.74 a7.5 7.5 0 1 0 15 0 a7.5 7.5 0 1 0 -15 0zM170.55 885.74 a7.5 7.5 0 1 0 15 0 a7.5 7.5 0 1 0 -15 0zM105.59 923.24 a7.5 7.5 0 1 0 15 0 a7.5 7.5 0 1 0 -15 0zM40.64 885.74 a7.5 7.5 0 1 0 15 0 a7.5 7.5 0 1 0 -15 0zM40.64 810.74 a7.5 7.5 0 1 0 15 0 a7.5 7.5 0 1 0 -15 0zM105.59 998.24 a7.5 7.5 0 1 0 15 0 a7.5 7.5 0 1 0 -15 0zM170.55 1035.74 a7.5 7.5 0 1 0 15 0 a7.5 7.5 0 1 0 -15 0zM170.55 1110.74 a7.5 7.5 0 1 0 15 0 a7.5 7.5 0 1 0 -15 0zM105.59 1148.24 a7.5 7.5 0 1 0 15 0 a7.5 7.5 0 1 0 -15 0zM40.64 1110.74 a7.5 7.5 0 1 0 15 0 a7.5 7.5 0 1 0 -15 0zM40.64 1035.74 a7.5 7.5 0 1 0 15 0 a7.5 7.5 0 1 0 -15 0zM170.55 -14.26 a7.5 7.5 0 1 0 15 0 a7.5 7.5 0 1 0 -15 0zM235.5 23.24 a7.5 7.5 0 1 0 15 0 a7.5 7.5 0 1 0 -15 0zM235.5 98.24 a7.5 7.5 0 1 0 15 0 a7.5 7.5 0 1 0 -15 0zM170.55 135.74 a7.5 7.5 0 1 0 15 0 a7.5 7.5 0 1 0 -15 0zM105.59 98.24 a7.5 7.5 0 1 0 15 0 a7.5 7.5 0 1 0 -15 0zM105.59 23.24 a7.5 7.5 0 1 0 15 0 a7.5 7.5 0 1 0 -15 0zM235.5 323.24 a7.5 7.5 0 1 0 15 0 a7.5 7.5 0 1 0 -15 0zM300.45 360.74 a7.5 7.5 0 1 0 15 0 a7.5 7.5 0 1 0 -15 0zM300.45 435.74 a7.5 7.5 0 1 0 15 0 a7.5 7.5 0 1 0 -15 0zM235.5 473.24 a7.5 7.5 0 1 0 15 0 a7.5 7.5 0 1 0 -15 0zM170.55 435.74 a7.5 7.5 0 1 0 15 0 a7.5 7.5 0 1 0 -15 0zM170.55 360.74 a7.5 7.5 0 1 0 15 0 a7.5 7.5 0 1 0 -15 0zM300.45 -14.26 a7.5 7.5 0 1 0 15 0 a7.5 7.5 0 1 0 -15 0zM365.41 23.24 a7.5 7.5 0 1 0 15 0 a7.5 7.5 0 1 0 -15 0zM365.41 98.24 a7.5 7.5 0 1 0 15 0 a7.5 7.5 0 1 0 -15 0zM300.45 135.74 a7.5 7.5 0 1 0 15 0 a7.5 7.5 0 1 0 -15 0zM365.41 323.24 a7.5 7.5 0 1 0 15 0 a7.5 7.5 0 1 0 -15 0zM430.36 360.74 a7.5 7.5 0 1 0 15 0 a7.5 7.5 0 1 0 -15 0zM430.36 435.74 a7.5 7.5 0 1 0 15 0 a7.5 7.5 0 1 0 -15 0zM365.41 473.24 a7.5 7.5 0 1 0 15 0 a7.5 7.5 0 1 0 -15 0zM300.45 660.74 a7.5 7.5 0 1 0 15 0 a7.5 7.5 0 1 0 -15 0zM365.41 698.24 a7.5 7.5 0 1 0 15 0 a7.5 7.5 0 1 0 -15 0zM365.41 773.24 a7.5 7.5 0 1 0 15 0 a7.5 7.5 0 1 0 -15 0zM300.45 810.74 a7.5 7.5 0 1 0 15 0 a7.5 7.5 0 1 0 -15 0zM235.5 773.24 a7.5 7.5 0 1 0 15 0 a7.5 7.5 0 1 0 -15 0zM235.5 698.24 a7.5 7.5 0 1 0 15 0 a7.5 7.5 0 1 0 -15 0zM755.13 548.24 a7.5 7.5 0 1 0 15 0 a7.5 7.5 0 1 0 -15 0zM820.09 585.74 a7.5 7.5 0 1 0 15 0 a7.5 7.5 0 1 0 -15 0zM820.09 660.74 a7.5 7.5 0 1 0 15 0 a7.5 7.5 0 1 0 -15 0zM755.13 698.24 a7.5 7.5 0 1 0 15 0 a7.5 7.5 0 1 0 -15 0zM690.18 660.74 a7.5 7.5 0 1 0 15 0 a7.5 7.5 0 1 0 -15 0zM690.18 585.74 a7.5 7.5 0 1 0 15 0 a7.5 7.5 0 1 0 -15 0zM755.13 773.24 a7.5 7.5 0 1 0 15 0 a7.5 7.5 0 1 0 -15 0zM820.09 810.74 a7.5 7.5 0 1 0 15 0 a7.5 7.5 0 1 0 -15 0zM820.09 885.74 a7.5 7.5 0 1 0 15 0 a7.5 7.5 0 1 0 -15 0zM755.13 923.24 a7.5 7.5 0 1 0 15 0 a7.5 7.5 0 1 0 -15 0zM690.18 885.74 a7.5 7.5 0 1 0 15 0 a7.5 7.5 0 1 0 -15 0zM690.18 810.74 a7.5 7.5 0 1 0 15 0 a7.5 7.5 0 1 0 -15 0zM820.08 -14.26 a7.5 7.5 0 1 0 15 0 a7.5 7.5 0 1 0 -15 0zM885.04 23.24 a7.5 7.5 0 1 0 15 0 a7.5 7.5 0 1 0 -15 0zM885.04 98.24 a7.5 7.5 0 1 0 15 0 a7.5 7.5 0 1 0 -15 0zM820.08 135.74 a7.5 7.5 0 1 0 15 0 a7.5 7.5 0 1 0 -15 0zM755.13 98.24 a7.5 7.5 0 1 0 15 0 a7.5 7.5 0 1 0 -15 0zM755.13 23.24 a7.5 7.5 0 1 0 15 0 a7.5 7.5 0 1 0 -15 0zM885.04 323.24 a7.5 7.5 0 1 0 15 0 a7.5 7.5 0 1 0 -15 0zM949.99 360.74 a7.5 7.5 0 1 0 15 0 a7.5 7.5 0 1 0 -15 0zM949.99 435.74 a7.5 7.5 0 1 0 15 0 a7.5 7.5 0 1 0 -15 0zM885.04 473.24 a7.5 7.5 0 1 0 15 0 a7.5 7.5 0 1 0 -15 0zM820.08 435.74 a7.5 7.5 0 1 0 15 0 a7.5 7.5 0 1 0 -15 0zM820.08 360.74 a7.5 7.5 0 1 0 15 0 a7.5 7.5 0 1 0 -15 0zM820.08 660.74 a7.5 7.5 0 1 0 15 0 a7.5 7.5 0 1 0 -15 0zM885.04 698.24 a7.5 7.5 0 1 0 15 0 a7.5 7.5 0 1 0 -15 0zM885.04 773.24 a7.5 7.5 0 1 0 15 0 a7.5 7.5 0 1 0 -15 0zM820.08 810.74 a7.5 7.5 0 1 0 15 0 a7.5 7.5 0 1 0 -15 0zM885.04 998.24 a7.5 7.5 0 1 0 15 0 a7.5 7.5 0 1 0 -15 0zM949.99 1035.74 a7.5 7.5 0 1 0 15 0 a7.5 7.5 0 1 0 -15 0zM949.99 1110.74 a7.5 7.5 0 1 0 15 0 a7.5 7.5 0 1 0 -15 0zM885.04 1148.24 a7.5 7.5 0 1 0 15 0 a7.5 7.5 0 1 0 -15 0zM820.08 1110.74 a7.5 7.5 0 1 0 15 0 a7.5 7.5 0 1 0 -15 0zM820.08 1035.74 a7.5 7.5 0 1 0 15 0 a7.5 7.5 0 1 0 -15 0zM1014.95 323.24 a7.5 7.5 0 1 0 15 0 a7.5 7.5 0 1 0 -15 0zM1079.9 360.74 a7.5 7.5 0 1 0 15 0 a7.5 7.5 0 1 0 -15 0zM1079.9 435.74 a7.5 7.5 0 1 0 15 0 a7.5 7.5 0 1 0 -15 0zM1014.95 473.24 a7.5 7.5 0 1 0 15 0 a7.5 7.5 0 1 0 -15 0zM1144.85 98.24 a7.5 7.5 0 1 0 15 0 a7.5 7.5 0 1 0 -15 0zM1209.81 135.74 a7.5 7.5 0 1 0 15 0 a7.5 7.5 0 1 0 -15 0zM1209.81 210.74 a7.5 7.5 0 1 0 15 0 a7.5 7.5 0 1 0 -15 0zM1144.85 248.24 a7.5 7.5 0 1 0 15 0 a7.5 7.5 0 1 0 -15 0zM1079.9 210.74 a7.5 7.5 0 1 0 15 0 a7.5 7.5 0 1 0 -15 0zM1079.9 135.74 a7.5 7.5 0 1 0 15 0 a7.5 7.5 0 1 0 -15 0zM1274.76 98.24 a7.5 7.5 0 1 0 15 0 a7.5 7.5 0 1 0 -15 0zM1339.71 135.74 a7.5 7.5 0 1 0 15 0 a7.5 7.5 0 1 0 -15 0zM1339.71 210.74 a7.5 7.5 0 1 0 15 0 a7.5 7.5 0 1 0 -15 0zM1274.76 248.24 a7.5 7.5 0 1 0 15 0 a7.5 7.5 0 1 0 -15 0zM1274.76 548.24 a7.5 7.5 0 1 0 15 0 a7.5 7.5 0 1 0 -15 0zM1339.71 585.74 a7.5 7.5 0 1 0 15 0 a7.5 7.5 0 1 0 -15 0zM1339.71 660.74 a7.5 7.5 0 1 0 15 0 a7.5 7.5 0 1 0 -15 0zM1274.76 698.24 a7.5 7.5 0 1 0 15 0 a7.5 7.5 0 1 0 -15 0zM1209.81 660.74 a7.5 7.5 0 1 0 15 0 a7.5 7.5 0 1 0 -15 0zM1209.81 585.74 a7.5 7.5 0 1 0 15 0 a7.5 7.5 0 1 0 -15 0zM1274.76 773.24 a7.5 7.5 0 1 0 15 0 a7.5 7.5 0 1 0 -15 0zM1339.71 810.74 a7.5 7.5 0 1 0 15 0 a7.5 7.5 0 1 0 -15 0zM1339.71 885.74 a7.5 7.5 0 1 0 15 0 a7.5 7.5 0 1 0 -15 0zM1274.76 923.24 a7.5 7.5 0 1 0 15 0 a7.5 7.5 0 1 0 -15 0zM1209.81 885.74 a7.5 7.5 0 1 0 15 0 a7.5 7.5 0 1 0 -15 0zM1209.81 810.74 a7.5 7.5 0 1 0 15 0 a7.5 7.5 0 1 0 -15 0zM1274.76 998.24 a7.5 7.5 0 1 0 15 0 a7.5 7.5 0 1 0 -15 0zM1339.71 1035.74 a7.5 7.5 0 1 0 15 0 a7.5 7.5 0 1 0 -15 0zM1339.71 1110.74 a7.5 7.5 0 1 0 15 0 a7.5 7.5 0 1 0 -15 0zM1274.76 1148.24 a7.5 7.5 0 1 0 15 0 a7.5 7.5 0 1 0 -15 0zM1209.81 1110.74 a7.5 7.5 0 1 0 15 0 a7.5 7.5 0 1 0 -15 0zM1209.81 1035.74 a7.5 7.5 0 1 0 15 0 a7.5 7.5 0 1 0 -15 0zM1339.72 -14.26 a7.5 7.5 0 1 0 15 0 a7.5 7.5 0 1 0 -15 0zM1404.67 23.24 a7.5 7.5 0 1 0 15 0 a7.5 7.5 0 1 0 -15 0zM1404.67 98.24 a7.5 7.5 0 1 0 15 0 a7.5 7.5 0 1 0 -15 0zM1339.72 135.74 a7.5 7.5 0 1 0 15 0 a7.5 7.5 0 1 0 -15 0zM1274.76 23.24 a7.5 7.5 0 1 0 15 0 a7.5 7.5 0 1 0 -15 0zM1339.72 210.74 a7.5 7.5 0 1 0 15 0 a7.5 7.5 0 1 0 -15 0zM1404.67 248.24 a7.5 7.5 0 1 0 15 0 a7.5 7.5 0 1 0 -15 0zM1404.67 323.24 a7.5 7.5 0 1 0 15 0 a7.5 7.5 0 1 0 -15 0zM1339.72 360.74 a7.5 7.5 0 1 0 15 0 a7.5 7.5 0 1 0 -15 0zM1274.76 323.24 a7.5 7.5 0 1 0 15 0 a7.5 7.5 0 1 0 -15 0zM1404.67 548.24 a7.5 7.5 0 1 0 15 0 a7.5 7.5 0 1 0 -15 0zM1469.62 585.74 a7.5 7.5 0 1 0 15 0 a7.5 7.5 0 1 0 -15 0zM1469.62 660.74 a7.5 7.5 0 1 0 15 0 a7.5 7.5 0 1 0 -15 0zM1404.67 698.24 a7.5 7.5 0 1 0 15 0 a7.5 7.5 0 1 0 -15 0zM1339.72 660.74 a7.5 7.5 0 1 0 15 0 a7.5 7.5 0 1 0 -15 0zM1339.72 585.74 a7.5 7.5 0 1 0 15 0 a7.5 7.5 0 1 0 -15 0zM1469.62 -14.26 a7.5 7.5 0 1 0 15 0 a7.5 7.5 0 1 0 -15 0zM1534.58 23.24 a7.5 7.5 0 1 0 15 0 a7.5 7.5 0 1 0 -15 0zM1534.58 98.24 a7.5 7.5 0 1 0 15 0 a7.5 7.5 0 1 0 -15 0zM1469.62 135.74 a7.5 7.5 0 1 0 15 0 a7.5 7.5 0 1 0 -15 0zM1599.53 135.74 a7.5 7.5 0 1 0 15 0 a7.5 7.5 0 1 0 -15 0zM1599.53 210.74 a7.5 7.5 0 1 0 15 0 a7.5 7.5 0 1 0 -15 0zM1534.58 248.24 a7.5 7.5 0 1 0 15 0 a7.5 7.5 0 1 0 -15 0zM1469.62 210.74 a7.5 7.5 0 1 0 15 0 a7.5 7.5 0 1 0 -15 0zM1534.58 323.24 a7.5 7.5 0 1 0 15 0 a7.5 7.5 0 1 0 -15 0zM1469.62 360.74 a7.5 7.5 0 1 0 15 0 a7.5 7.5 0 1 0 -15 0zM1599.53 360.74 a7.5 7.5 0 1 0 15 0 a7.5 7.5 0 1 0 -15 0zM1599.53 435.74 a7.5 7.5 0 1 0 15 0 a7.5 7.5 0 1 0 -15 0zM1534.58 473.24 a7.5 7.5 0 1 0 15 0 a7.5 7.5 0 1 0 -15 0zM1469.62 435.74 a7.5 7.5 0 1 0 15 0 a7.5 7.5 0 1 0 -15 0zM1534.58 698.24 a7.5 7.5 0 1 0 15 0 a7.5 7.5 0 1 0 -15 0zM1534.58 773.24 a7.5 7.5 0 1 0 15 0 a7.5 7.5 0 1 0 -15 0zM1469.62 810.74 a7.5 7.5 0 1 0 15 0 a7.5 7.5 0 1 0 -15 0zM1404.67 773.24 a7.5 7.5 0 1 0 15 0 a7.5 7.5 0 1 0 -15 0zM1469.62 885.74 a7.5 7.5 0 1 0 15 0 a7.5 7.5 0 1 0 -15 0zM1534.58 923.24 a7.5 7.5 0 1 0 15 0 a7.5 7.5 0 1 0 -15 0zM1534.58 998.24 a7.5 7.5 0 1 0 15 0 a7.5 7.5 0 1 0 -15 0zM1469.62 1035.74 a7.5 7.5 0 1 0 15 0 a7.5 7.5 0 1 0 -15 0zM1404.67 998.24 a7.5 7.5 0 1 0 15 0 a7.5 7.5 0 1 0 -15 0zM1404.67 923.24 a7.5 7.5 0 1 0 15 0 a7.5 7.5 0 1 0 -15 0z" fill="rgba(255, 53, 98, 1)" style="--darkreader-inline-fill:#ac0026;" data-darkreader-inline-fill=""></path>
        <path d="M61.02 73.34L104.33 98.34L104.33 148.34L61.02 173.34L17.72 148.34L17.72 98.34zM61.02 223.34L104.33 248.34L104.33 298.34L61.02 323.34L17.72 298.34L17.72 248.34zM61.02 673.34L104.33 698.34L104.33 748.34L61.02 773.34L17.72 748.34L17.72 698.34zM104.33 148.34L147.63 173.34L147.63 223.34L104.33 248.34L61.02 223.34L61.02 173.34zM147.63 223.34L190.93 248.34L190.93 298.34L147.63 323.34L104.33 298.34L104.33 248.34zM104.33 448.34L147.63 473.34L147.63 523.34L104.33 548.34L61.02 523.34L61.02 473.34zM104.33 898.34L147.63 923.34L147.63 973.34L104.33 998.34L61.02 973.34L61.02 923.34zM190.93 448.34L234.23 473.34L234.23 523.34L190.93 548.34L147.63 523.34L147.63 473.34zM234.23 673.34L277.53 698.34L277.53 748.34L234.23 773.34L190.93 748.34L190.93 698.34zM190.93 898.34L234.23 923.34L234.23 973.34L190.93 998.34L147.63 973.34L147.63 923.34zM234.23 973.34L277.53 998.34L277.53 1048.34L234.23 1073.34L190.93 1048.34L190.93 998.34zM320.84 373.34L364.14 398.34L364.14 448.34L320.84 473.34L277.53 448.34L277.53 398.34zM277.53 598.34L320.84 623.34L320.84 673.34L277.53 698.34L234.23 673.34L234.23 623.34zM320.84 823.34L364.14 848.34L364.14 898.34L320.84 923.34L277.53 898.34L277.53 848.34zM320.84 973.34L364.14 998.34L364.14 1048.34L320.84 1073.34L277.53 1048.34L277.53 998.34zM364.14 -1.66L407.44 23.34L407.44 73.34L364.14 98.34L320.84 73.34L320.84 23.34zM407.44 73.34L450.75 98.34L450.75 148.34L407.44 173.34L364.14 148.34L364.14 98.34zM364.14 448.34L407.44 473.34L407.44 523.34L364.14 548.34L320.84 523.34L320.84 473.34zM407.44 673.34L450.75 698.34L450.75 748.34L407.44 773.34L364.14 748.34L364.14 698.34zM407.44 823.34L450.75 848.34L450.75 898.34L407.44 923.34L364.14 898.34L364.14 848.34zM364.14 1048.34L407.44 1073.34L407.44 1123.34L364.14 1148.34L320.84 1123.34L320.84 1073.34zM494.05 823.34L537.35 848.34L537.35 898.34L494.05 923.34L450.75 898.34L450.75 848.34zM580.65 223.34L623.96 248.34L623.96 298.34L580.65 323.34L537.35 298.34L537.35 248.34zM537.35 298.34L580.65 323.34L580.65 373.34L537.35 398.34L494.05 373.34L494.05 323.34zM537.35 448.34L580.65 473.34L580.65 523.34L537.35 548.34L494.05 523.34L494.05 473.34zM580.65 823.34L623.96 848.34L623.96 898.34L580.65 923.34L537.35 898.34L537.35 848.34zM623.96 -1.66L667.26 23.34L667.26 73.34L623.96 98.34L580.65 73.34L580.65 23.34zM623.96 148.34L667.26 173.34L667.26 223.34L623.96 248.34L580.65 223.34L580.65 173.34zM667.26 523.34L710.56 548.34L710.56 598.34L667.26 623.34L623.96 598.34L623.96 548.34zM667.26 673.34L710.56 698.34L710.56 748.34L667.26 773.34L623.96 748.34L623.96 698.34zM667.26 973.34L710.56 998.34L710.56 1048.34L667.26 1073.34L623.96 1048.34L623.96 998.34zM623.96 1048.34L667.26 1073.34L667.26 1123.34L623.96 1148.34L580.65 1123.34L580.65 1073.34zM710.56 -1.66L753.86 23.34L753.86 73.34L710.56 98.34L667.26 73.34L667.26 23.34zM753.86 73.34L797.17 98.34L797.17 148.34L753.86 173.34L710.56 148.34L710.56 98.34zM710.56 448.34L753.86 473.34L753.86 523.34L710.56 548.34L667.26 523.34L667.26 473.34zM840.47 673.34L883.77 698.34L883.77 748.34L840.47 773.34L797.17 748.34L797.17 698.34zM797.17 1048.34L840.47 1073.34L840.47 1123.34L797.17 1148.34L753.86 1123.34L753.86 1073.34zM927.07 223.34L970.38 248.34L970.38 298.34L927.07 323.34L883.77 298.34L883.77 248.34zM927.07 523.34L970.38 548.34L970.38 598.34L927.07 623.34L883.77 598.34L883.77 548.34zM927.07 673.34L970.38 698.34L970.38 748.34L927.07 773.34L883.77 748.34L883.77 698.34zM883.77 748.34L927.07 773.34L927.07 823.34L883.77 848.34L840.47 823.34L840.47 773.34zM927.07 973.34L970.38 998.34L970.38 1048.34L927.07 1073.34L883.77 1048.34L883.77 998.34zM1013.68 73.34L1056.98 98.34L1056.98 148.34L1013.68 173.34L970.38 148.34L970.38 98.34zM1013.68 373.34L1056.98 398.34L1056.98 448.34L1013.68 473.34L970.38 448.34L970.38 398.34zM970.38 448.34L1013.68 473.34L1013.68 523.34L970.38 548.34L927.07 523.34L927.07 473.34zM1013.68 523.34L1056.98 548.34L1056.98 598.34L1013.68 623.34L970.38 598.34L970.38 548.34zM970.38 598.34L1013.68 623.34L1013.68 673.34L970.38 698.34L927.07 673.34L927.07 623.34zM970.38 748.34L1013.68 773.34L1013.68 823.34L970.38 848.34L927.07 823.34L927.07 773.34zM1013.68 823.34L1056.98 848.34L1056.98 898.34L1013.68 923.34L970.38 898.34L970.38 848.34zM970.38 898.34L1013.68 923.34L1013.68 973.34L970.38 998.34L927.07 973.34L927.07 923.34zM1013.68 973.34L1056.98 998.34L1056.98 1048.34L1013.68 1073.34L970.38 1048.34L970.38 998.34zM1056.98 148.34L1100.28 173.34L1100.28 223.34L1056.98 248.34L1013.68 223.34L1013.68 173.34zM1056.98 598.34L1100.28 623.34L1100.28 673.34L1056.98 698.34L1013.68 673.34L1013.68 623.34zM1100.28 823.34L1143.59 848.34L1143.59 898.34L1100.28 923.34L1056.98 898.34L1056.98 848.34zM1186.89 73.34L1230.19 98.34L1230.19 148.34L1186.89 173.34L1143.59 148.34L1143.59 98.34zM1186.89 373.34L1230.19 398.34L1230.19 448.34L1186.89 473.34L1143.59 448.34L1143.59 398.34zM1143.59 448.34L1186.89 473.34L1186.89 523.34L1143.59 548.34L1100.28 523.34L1100.28 473.34zM1186.89 523.34L1230.19 548.34L1230.19 598.34L1186.89 623.34L1143.59 598.34L1143.59 548.34zM1143.59 598.34L1186.89 623.34L1186.89 673.34L1143.59 698.34L1100.28 673.34L1100.28 623.34zM1143.59 748.34L1186.89 773.34L1186.89 823.34L1143.59 848.34L1100.28 823.34L1100.28 773.34zM1143.59 898.34L1186.89 923.34L1186.89 973.34L1143.59 998.34L1100.28 973.34L1100.28 923.34zM1230.19 -1.66L1273.49 23.34L1273.49 73.34L1230.19 98.34L1186.89 73.34L1186.89 23.34zM1273.49 523.34L1316.8 548.34L1316.8 598.34L1273.49 623.34L1230.19 598.34L1230.19 548.34zM1230.19 748.34L1273.49 773.34L1273.49 823.34L1230.19 848.34L1186.89 823.34L1186.89 773.34zM1230.19 898.34L1273.49 923.34L1273.49 973.34L1230.19 998.34L1186.89 973.34L1186.89 923.34zM1316.8 -1.66L1360.1 23.34L1360.1 73.34L1316.8 98.34L1273.49 73.34L1273.49 23.34zM1360.1 73.34L1403.4 98.34L1403.4 148.34L1360.1 173.34L1316.8 148.34L1316.8 98.34zM1316.8 898.34L1360.1 923.34L1360.1 973.34L1316.8 998.34L1273.49 973.34L1273.49 923.34zM1360.1 973.34L1403.4 998.34L1403.4 1048.34L1360.1 1073.34L1316.8 1048.34L1316.8 998.34zM1403.4 -1.66L1446.7 23.34L1446.7 73.34L1403.4 98.34L1360.1 73.34L1360.1 23.34zM1446.7 73.34L1490.01 98.34L1490.01 148.34L1446.7 173.34L1403.4 148.34L1403.4 98.34zM1403.4 748.34L1446.7 773.34L1446.7 823.34L1403.4 848.34L1360.1 823.34L1360.1 773.34z" stroke="rgba(255, 123, 252, 0.93)" stroke-width="2" style="--darkreader-inline-stroke:rgba(255, 112, 252, 0.93);" data-darkreader-inline-stroke=""></path>
    </g>
    <defs>
        <mask id="SvgjsMask1007">
            <rect width="1440" height="1024" fill="#ffffff" style="--darkreader-inline-fill:#e8e6e3;" data-darkreader-inline-fill=""></rect>
        </mask>
    </defs>
</svg>