<?xml version="1.0" standalone="no"?>
<!-- Generator: Adobe Fireworks 10, Export SVG Extension by Aaron Beall (http://fireworks.abeall.com) . Version: 0.6.1  -->
<!DOCTYPE svg PUBLIC "-//W3C//DTD SVG 1.1//EN" "http://www.w3.org/Graphics/SVG/1.1/DTD/svg11.dtd">
<svg id="DVG%20Square.fw-Page%201" viewBox="0 0 1024 1024" style="background-color:#ffffff00" version="1.1"
	xmlns="http://www.w3.org/2000/svg" xmlns:xlink="http://www.w3.org/1999/xlink" xml:space="preserve"
	x="0px" y="0px" width="1024px" height="1024px"
>
	<path d="M 105.4 763.4 L 268.6 926.6 L 105.4 926.6 L 105.4 763.4 ZM 0 512 L 0 1024 L 512.0001 1024 L 0 512 Z" fill="#ffffff"/>
	<path d="M 917.9999 764 L 918.6 764 L 1023.9999 764 L 1023.9999 829 L 918.6 829 L 918.6 926.6 L 755.4 926.6 L 917.9999 764 ZM 1024 512 L 512 1024 L 1024 1024 L 1024 512 Z" fill="#ffffff"/>
	<path d="M 918.6 260.6 L 755.4 97.4 L 918.6 97.4 L 918.6 260.6 ZM 1024 512 L 1024 0 L 512 0 L 1024 512 Z" fill="#ffffff"/>
	<path d="M 0 512 L 512 0 L 0 0 L 0 195 L 104.7999 195 L 104.7999 97.4 L 267.9999 97.4 L 105.4 260 L 104.7999 260 L 0 260 L 0 512 Z" fill="#ffffff"/>
	<path id="Scaled" d="M 513 818.5586 L 207.4414 513 L 512.9999 207.4414 L 818.5585 513 L 513 818.5586 ZM 76 513 L 513 950 L 950 513 L 512.9999 76 L 76 513 Z" fill="#ffffff"/>
	<path id="Scaled2" d="M 281 513 L 513 745 L 745 513 L 512.9999 281 L 281 513 Z" fill="#ffffff"/>
</svg>