<?xml version="1.0" standalone="no"?>
<!-- Generator: Adobe Fireworks 10, Export SVG Extension by Aaron Beall (http://fireworks.abeall.com) . Version: 0.6.1  -->
<!DOCTYPE svg PUBLIC "-//W3C//DTD SVG 1.1//EN" "http://www.w3.org/Graphics/SVG/1.1/DTD/svg11.dtd">
<svg id="folder.fw-Page%201" viewBox="0 0 512 512" style="background-color:#ffffff00" version="1.1"
	xmlns="http://www.w3.org/2000/svg" xmlns:xlink="http://www.w3.org/1999/xlink" xml:space="preserve"
	x="0px" y="0px" width="512px" height="512px"
>
	<defs>
		<linearGradient id="gradient1" x1="47.006%" y1="75.8373%" x2="95.2422%" y2="98.9962%">
			<stop stop-color="#e4e4e4" stop-opacity="1" offset="0%"/>
			<stop stop-color="#c8c8c8" stop-opacity="1" offset="98.8889%"/>
		</linearGradient>
		<radialGradient id="gradient2" cx="78.7425%" cy="22.488%" r="55.3504%">
			<stop stop-color="#8b8b8b" stop-opacity="1" offset="0%"/>
			<stop stop-color="#d8d8d8" stop-opacity="0" offset="98.3333%"/>
		</radialGradient>
		<linearGradient id="gradient3" x1="0.0625%" y1="47.6192%" x2="187.9375%" y2="47.6192%">
			<stop stop-color="#727272" stop-opacity="1" offset="0%"/>
			<stop stop-color="#4a4a4a" stop-opacity="1" offset="86.1111%"/>
			<stop stop-color="#4a4a4a" stop-opacity="1" offset="98.8889%"/>
		</linearGradient>
		<linearGradient id="gradient4" x1="0%" y1="49.9999%" x2="100%" y2="49.9999%">
			<stop stop-color="#727272" stop-opacity="1" offset="0%"/>
			<stop stop-color="#4a4a4a" stop-opacity="1" offset="86.1111%"/>
			<stop stop-color="#4a4a4a" stop-opacity="1" offset="98.8889%"/>
		</linearGradient>
		<linearGradient id="gradient5" x1="0%" y1="49.9999%" x2="100%" y2="49.9999%">
			<stop stop-color="#727272" stop-opacity="1" offset="0%"/>
			<stop stop-color="#4a4a4a" stop-opacity="1" offset="86.1111%"/>
			<stop stop-color="#4a4a4a" stop-opacity="1" offset="98.8889%"/>
		</linearGradient>
		<linearGradient id="gradient6" x1="0%" y1="50%" x2="100%" y2="50%">
			<stop stop-color="#727272" stop-opacity="1" offset="0%"/>
			<stop stop-color="#4a4a4a" stop-opacity="1" offset="86.1111%"/>
			<stop stop-color="#4a4a4a" stop-opacity="1" offset="98.8889%"/>
		</linearGradient>
	</defs>
	<path d="M 93 67.9 L 93 444.1 C 93 462.2003 95.7963 465 113.875 465 L 406.125 465 C 424.2036 465 427 462.2003 427 444.1 L 427 179.3492 L 312.7092 47 L 113.875 47 C 95.7963 47 93 49.7997 93 67.9 Z" fill="url(#gradient1)"/>
	<path opacity="0.502" d="M 93 67.9 L 93 444.1 C 93 462.2003 95.7963 465 113.875 465 L 406.125 465 C 424.2036 465 427 462.2003 427 444.1 L 427 179.3492 L 312.7092 47 L 113.875 47 C 95.7963 47 93 49.7997 93 67.9 Z" fill="url(#gradient2)"/>
	<rect x="166" y="243" width="100.0333" height="24.0123" fill="url(#gradient3)"/>
	<rect x="166.0625" y="290.2814" width="187.9375" height="23.898" fill="url(#gradient4)"/>
	<rect x="166.0625" y="338.0774" width="187.9375" height="23.898" fill="url(#gradient5)"/>
	<rect x="166.0625" y="386.1021" width="187.9375" height="23.8979" fill="url(#gradient6)"/>
	<path d="M 427 179.3492 L 312.7092 47 C 305.9383 53.639 301.75 62.8868 301.75 73.125 L 301.75 146.275 C 301.75 166.475 318.1054 182.85 338.2813 182.85 L 411.3438 182.85 C 416.9364 182.85 422.2616 181.5983 427 179.3492 Z" fill="#fafafa"/>
</svg>