<?xml version="1.0" standalone="no"?>
<!-- Generator: Adobe Fireworks 10, Export SVG Extension by Aaron Beall (http://fireworks.abeall.com) . Version: 0.6.1  -->
<!DOCTYPE svg PUBLIC "-//W3C//DTD SVG 1.1//EN" "http://www.w3.org/Graphics/SVG/1.1/DTD/svg11.dtd">
<svg id="folder.fw-Page%201" viewBox="0 0 512 512" style="background-color:#ffffff00" version="1.1"
	xmlns="http://www.w3.org/2000/svg" xmlns:xlink="http://www.w3.org/1999/xlink" xml:space="preserve"
	x="0px" y="0px" width="512px" height="512px"
>
	<defs>
		<linearGradient id="gradient1" x1="0%" y1="55.7143%" x2="100%" y2="55.7143%">
			<stop stop-color="#ffa000" stop-opacity="1" offset="0%"/>
			<stop stop-color="#cb8b1c" stop-opacity="1" offset="97.7778%"/>
		</linearGradient>
		<linearGradient id="gradient2" x1="46.8599%" y1="100.3796%" x2="191.7874%" y2="100.3796%">
			<stop stop-color="#ffca28" stop-opacity="1" offset="0%"/>
			<stop stop-color="#c7871c" stop-opacity="1" offset="98.3333%"/>
		</linearGradient>
	</defs>
	<path d="M 48 138.5502 L 48 180.9 L 48 409.9355 C 48 429.5636 53.4253 435 73.0126 435 L 436.9875 435 C 456.5747 435 462 429.5636 462 409.9355 L 462 138.5502 C 462 118.9221 456.5747 113.4857 436.9875 113.4857 L 275.7 113.4857 C 275.7 113.4857 196.5365 72 177.375 72 L 73.875 72 C 54.7135 72 48 78.7274 48 97.9286 L 48 138.5502 Z" fill="url(#gradient1)"/>
	<path d="M 48 253.5 L 48 342.6592 L 48 409.9355 C 48 429.5636 53.4253 435 73.0126 435 L 436.9875 435 C 456.5747 435 462 429.5636 462 409.9355 L 462 343.5236 L 462 252.6359 L 462 196.5951 C 462 176.967 456.5747 171.5306 436.9875 171.5306 L 73.0126 171.5306 C 53.4253 171.5306 48 176.967 48 196.5951 L 48 253.5 Z" fill="url(#gradient2)"/>
</svg>