<?xml version="1.0" standalone="no"?>
<!-- Generator: Adobe Fireworks 10, Export SVG Extension by Aaron Beall (http://fireworks.abeall.com) . Version: 0.6.1  -->
<!DOCTYPE svg PUBLIC "-//W3C//DTD SVG 1.1//EN" "http://www.w3.org/Graphics/SVG/1.1/DTD/svg11.dtd">
<svg id="Untitled-Page%201" viewBox="0 0 512 512" style="background-color:#ffffff00" version="1.1"
	xmlns="http://www.w3.org/2000/svg" xmlns:xlink="http://www.w3.org/1999/xlink" xml:space="preserve"
	x="0px" y="0px" width="512px" height="512px"
>
	<path d="M 311.9423 224.9688 C 311.9423 192.9063 259.7856 173.5 230.3423 173.5 C 216.8825 173.5 201.7402 175.1875 188.2804 181.9375 C 179.868 185.3125 169.7732 190.375 163.0433 197.9688 C 129.3938 230.875 83.1258 269.6875 62.9361 305.125 C 53.6825 320.3125 52 337.1875 52 352.375 C 52 408.0625 95.7443 457 155.4722 457 C 170.6144 457 187.4392 453.625 203.4227 445.1875 C 207.6289 442.6563 214.3588 439.2813 219.4062 435.0625 C 245.4845 408.9063 270.7216 395.4063 270.7216 371.7813 C 270.7216 355.75 258.1031 341.4063 240.4371 341.4063 C 208.4701 341.4063 193.3278 395.4063 155.4722 395.4063 C 134.4412 395.4063 113.4103 377.6875 113.4103 352.375 C 113.4103 346.4688 114.2515 338.0313 118.4577 332.9688 C 142.0124 300.9063 176.5031 269.6875 206.7876 242.6875 C 212.6763 237.625 222.7711 235.0938 230.3423 235.0938 C 253.8969 235.0938 258.9443 255.3438 281.6577 255.3438 C 299.3237 255.3438 311.9423 242.6875 311.9423 224.9688 Z" fill="#cccccc"/>
	<path d="M 460 155.7813 C 460 98.4063 415.4144 52 356.5278 52 C 354.0041 52 338.8618 52.8438 331.2907 54.5313 C 321.1959 56.2188 306.8948 62.125 297.6412 69.7188 C 279.134 83.2188 257.2618 104.3125 244.6433 122.875 C 241.2784 127.0938 242.1196 134.6875 242.1196 137.2188 C 242.1196 152.4063 253.8969 167.5938 272.4041 167.5938 C 303.5299 167.5938 319.5134 113.5938 356.5278 113.5938 C 378.4 113.5938 398.5897 133 398.5897 155.7813 C 398.5897 162.5313 397.7484 167.5938 393.5423 175.1875 C 392.701 177.7188 391.0186 180.25 389.3361 181.9375 C 361.5753 210.625 333.8144 240.1563 304.3711 266.3125 C 297.6412 272.2188 289.2289 273.9063 281.6577 273.9063 C 258.1031 273.9063 253.0557 253.6563 230.3423 253.6563 C 216.0412 253.6563 200.0577 263.7813 200.0577 283.1875 C 200.0577 321.1563 262.3093 335.5 281.6577 335.5 C 289.2289 335.5 306.0536 332.125 312.7835 330.4375 C 351.4804 320.3125 391.8598 263.7813 430.5567 229.1875 C 434.7629 224.9688 438.9691 219.9063 441.4928 215.6875 C 446.5402 208.9375 449.9052 201.3438 452.4289 195.4375 C 458.3175 183.625 460 168.4375 460 155.7813 Z" fill="#cccccc"/>
</svg>