<?xml version="1.0" standalone="no"?>
<!-- Generator: Adobe Fireworks 10, Export SVG Extension by Aaron Beall (http://fireworks.abeall.com) . Version: 0.6.1  -->
<!DOCTYPE svg PUBLIC "-//W3C//DTD SVG 1.1//EN" "http://www.w3.org/Graphics/SVG/1.1/DTD/svg11.dtd">
<svg id="Untitled-Page%201" viewBox="0 0 512 512" style="background-color:#ffffff00" version="1.1"
	xmlns="http://www.w3.org/2000/svg" xmlns:xlink="http://www.w3.org/1999/xlink" xml:space="preserve"
	x="0px" y="0px" width="512px" height="512px"
>
	<defs>
		<linearGradient id="gradient1" x1="-0.2973%" y1="-5.4413%" x2="72.0088%" y2="63.514%">
			<stop stop-color="#0080ff" stop-opacity="1" offset="0%"/>
			<stop stop-color="#0099ff" stop-opacity="1" offset="100%"/>
		</linearGradient>
		<linearGradient id="gradient2" x1="50%" y1="0%" x2="50%" y2="100%">
			<stop stop-color="#0092ff" stop-opacity="1" offset="0%"/>
			<stop stop-color="#00ccff" stop-opacity="1" offset="100%"/>
		</linearGradient>
	</defs>
	<path id="One%20Piece" d="M 172.725 146.285 C 184.5551 109.4544 206.3339 67.8782 236.5 56.43 L 236.5 157.215 C 233.6286 156.8995 229.3363 156.4141 226.875 156.25 C 208.9401 154.3777 190.8481 150.9138 172.725 146.285 ZM 157.625 236.125 L 157.625 235.875 C 158.125 230.875 158.375 225.625 158.625 220.625 C 159.375 214.625 159.875 208.375 160.625 202.375 L 164.375 179.625 C 164.8244 177.0158 165.3538 174.2849 165.96 171.455 C 171.416 172.8837 177.0504 174.0668 182.375 175.25 C 190.625 177.25 199.375 178.75 207.875 180 C 216.8602 181.3823 227.1193 182.7653 236.5 183.365 L 236.5 236.125 L 157.625 236.125 ZM 165.965 339.105 C 165.4691 336.7535 164.8678 334.5106 164.375 332.375 C 163.375 326.625 162.125 320.625 161.375 314.875 C 161.125 313.625 157.625 283.375 157.625 276.125 L 157.625 265.875 L 236.5 265.875 L 236.5 327.465 C 216.0417 328.9105 195.5833 332.0478 175.125 336.875 C 172.0988 337.5824 169.0423 338.3264 165.965 339.105 ZM 236.5 455.525 C 204.2882 443.1287 182.5523 396.2327 172.325 364.28 C 178.8893 362.527 185.6564 360.9738 192.625 359.625 C 199.875 358.125 207.875 356.625 215.375 355.625 C 222.2229 354.618 229.3953 354.0963 236.5 353.54 L 236.5 455.525 ZM 348.375 265.875 L 348.375 275.875 L 346.875 294.125 C 345.6204 308.8042 343.4185 323.8585 340.085 338.945 C 334.4527 337.5606 328.8598 336.2884 323.375 335.125 C 315.125 333.375 306.625 331.875 298.875 330.625 C 289.125 329.125 278.125 327.875 268.625 327.375 L 266.5 327.31 L 266.5 265.875 L 348.375 265.875 ZM 339.71 171.69 C 341.2109 178.3886 342.5169 185.2835 343.625 192.375 C 344.625 198.375 348.375 225.375 348.375 235.875 L 348.375 236.125 L 266.5 236.125 L 266.5 183.5 L 266.625 183.5 C 276.125 183.5 310.875 178 315.375 177 C 321.625 175.75 328.625 174.25 335.125 172.75 C 336.651 172.4066 338.1785 172.0533 339.71 171.69 ZM 262.375 25.125 L 243.125 25.125 C 237.625 25.625 232.125 25.875 226.625 26.375 C 186.125 30.125 128.625 52.125 89.875 92.375 C 40.875 142.875 25.375 194.875 22.125 245.625 L 22.125 246.31 C 21.6281 247.8216 21.375 249.3746 21.375 250.875 C 21.375 252.3873 21.6238 253.9726 22.125 255.525 L 22.125 266.125 C 22.125 266.625 22.875 277.125 23.375 282.375 C 27.125 322.625 49.125 380.125 89.375 419.125 C 139.875 467.875 191.875 483.375 242.625 486.875 L 263.125 486.875 C 263.875 486.875 274.125 485.875 279.375 485.375 C 320.125 481.375 377.375 459.875 416.625 419.125 C 465.625 367.875 480.375 316.375 483.875 265.625 L 483.625 241.375 C 481.625 214.125 475.125 185.625 462.375 158.625 C 451.875 136.125 436.875 112.125 413.875 90.375 C 363.625 42.625 312.625 27.875 262.375 25.125 ZM 266.5 55.68 L 267.26 55.74 C 300.8816 66.9381 323.5854 115.3971 333.135 146.525 C 327.6235 147.8971 322.063 149.1975 316.625 150.25 C 308.625 152 300.625 153.5 292.875 154.5 C 284.2465 155.7326 275.3749 156.7236 266.5 157.47 L 266.5 55.68 ZM 102.39 123.365 C 105.2293 120.1154 108.2226 116.8695 111.375 113.625 C 131.25 92.9972 157.2918 77.7195 182.345 68.12 C 167.2383 88.1147 155.5669 113.3743 147.45 139.12 C 132.3909 134.4526 117.3462 129.118 102.39 123.365 ZM 53.24 236.125 C 56.4476 205.806 65.1978 175.2851 85.755 144.89 C 88.5082 145.9645 91.4489 147.0145 94.375 148.25 C 102.875 151.75 111.875 154.75 120.375 157.75 L 131.625 161.5 C 134.5779 162.3203 137.6381 163.2501 140.665 164.215 C 138.9006 171.9962 137.4696 179.6765 136.375 187.125 L 133.375 209.125 C 132.625 217.875 131.875 226.875 131.375 235.625 L 131.375 236.125 L 53.24 236.125 ZM 84.935 365.965 C 66.5313 337.3587 55.9434 304.9862 53.625 280.375 C 53.375 275.625 52.375 266.375 52.375 265.875 L 131.375 265.875 L 131.375 276.375 C 131.375 276.875 131.875 285.125 132.375 289.375 C 133.9075 308.1828 136.3737 327.2243 140.505 346.195 C 132.3356 348.6753 124.2261 351.3358 116.375 354.125 C 108.375 356.875 99.875 359.625 92.125 363.125 C 89.6388 364.2235 87.206 365.1088 84.935 365.965 ZM 182.455 444.045 C 158.447 435.0912 134.4398 420.6272 110.875 397.875 C 107.4576 394.5814 104.1869 391.1264 101.065 387.54 C 114.7262 382.2081 128.9305 377.1617 142.375 372.875 C 143.8403 372.3866 145.4202 371.86 147.04 371.34 C 149.0614 377.9645 151.3289 384.5638 153.875 391.125 C 160.705 408.6379 168.8868 426.7663 182.455 444.045 ZM 267.675 456.11 L 266.5 456.24 L 266.5 353.31 C 270.4777 353.6228 277.9735 354.2582 282.375 354.625 C 299.2588 356.5328 316.3234 359.785 333.46 364.025 C 331.4242 370.5985 329.1519 377.143 326.625 383.625 C 315.7334 411.815 295.3578 446.5765 267.675 456.11 ZM 405.315 386.555 C 402.0461 390.4206 398.569 394.2771 394.875 398.125 C 374.6228 418.8375 348.4386 434.181 323.43 443.755 C 339.6808 421.9836 351.2646 394.8753 358.785 370.955 C 374.3085 375.5839 389.847 380.8735 405.315 386.555 ZM 453.61 265.875 C 451.3401 298.5352 443.0589 331.8917 421.495 364.9 C 402.7469 357.7972 383.841 351.1734 365.565 345.825 C 367.0909 339.0175 368.1873 332.9284 368.875 327.875 C 369.875 319.625 371.625 310.875 372.375 302.875 C 373.125 295.625 373.875 288.125 374.375 280.875 L 374.46 265.875 L 453.61 265.875 ZM 420.875 145.82 C 439.6868 174.9967 450.4029 208.1671 452.375 233.625 C 452.4222 234.3327 452.4962 235.1918 452.585 236.125 L 374.625 236.125 L 373.125 216.625 C 372.375 210.625 371.875 204.375 371.125 198.875 C 370.125 190.875 368.625 182.375 367.125 174.625 C 366.4567 171.3947 365.7405 168.1653 364.995 164.935 C 375.2882 161.903 385.613 158.5473 395.875 155 C 404.2918 152.1142 412.4758 148.5361 420.875 145.82 ZM 323.22 67.82 C 347.0471 76.6565 371.0079 90.92 394.875 113.875 C 398.2602 117.1393 401.502 120.5608 404.6 124.11 C 389.1682 129.7633 373.5335 135.2124 358.495 139.66 C 350.9424 114.6778 339.0975 88.5849 323.22 67.82 Z" fill="url(#gradient1)"/>
	<path d="M 261.9004 25 L 242.5983 25 C 237.0834 25.5003 231.5685 25.7504 226.0536 26.2507 C 185.444 30.0027 127.7883 52.0146 88.9334 92.2864 C 39.8008 142.8137 24.2588 194.8419 21 245.6194 L 21 266.1305 C 21 266.6308 21.752 277.1364 22.2534 282.3893 C 26.0135 322.6611 48.0731 380.1922 88.432 419.2133 C 139.0688 467.9897 191.2095 483.4981 242.0969 487 L 262.6524 487 C 263.4044 487 273.6822 485.9995 278.9464 485.4992 C 319.8067 481.497 377.2117 459.9854 416.5679 419.2133 C 465.7006 367.9356 480.4905 316.4077 484 265.6302 L 483.7493 241.3671 C 481.7439 214.1023 475.2263 185.5869 462.4418 158.5723 C 451.9134 136.0601 436.8727 112.0471 413.8105 90.2853 C 363.4244 42.5095 312.2864 27.7515 261.9004 25 ZM 276.941 56.5171 C 315.7959 61.7699 355.4028 76.0276 394.7591 113.798 C 429.8538 147.5663 449.6573 198.0937 452.4147 233.6129 C 452.6654 237.3649 453.6681 245.3692 453.6681 246.1197 L 453.6681 265.6302 C 450.66 309.4039 436.8727 354.4283 394.7591 398.2019 C 361.6697 431.9702 312.7878 451.4808 278.9464 454.9827 C 273.4315 455.4829 262.9031 456.7336 262.151 456.7336 L 242.5983 456.7336 C 198.7298 453.732 153.608 439.9745 109.9902 397.9518 C 75.3969 364.6838 55.8441 314.9069 52.5853 280.3882 C 52.3346 275.6356 51.3319 266.3806 51.3319 265.8803 L 51.3319 246.1197 C 54.34 202.0958 67.6259 157.5717 110.4916 113.5479 C 143.5809 79.2794 193.7163 59.7688 228.059 56.5171 C 233.0726 56.2669 242.3476 55.2664 243.0996 55.2664 L 261.6497 55.2664 C 262.4017 55.2664 271.9275 56.0168 276.941 56.5171 Z" fill="url(#gradient2)"/>
</svg>